<svg width="771" height="465" viewBox="0 0 771 465" fill="none" xmlns="http://www.w3.org/2000/svg">
<path d="M112.592 377C112.592 377 117.368 383.275 110.385 392.75C103.401 402.226 97.6453 410.226 99.9731 416.136C99.9731 416.136 110.512 398.521 119.086 398.29C127.659 398.059 121.994 387.581 112.592 377Z" fill="#F50057"/>
<path opacity="0.1" d="M112.592 377C113.008 377.607 113.338 378.269 113.571 378.968C121.933 388.845 126.396 398.059 118.348 398.29C110.857 398.509 101.872 411.963 99.7191 415.364C99.7917 415.626 99.8763 415.881 99.9731 416.136C99.9731 416.136 110.512 398.521 119.086 398.29C127.659 398.059 121.994 387.581 112.592 377Z" fill="black"/>
<path d="M121.444 385C121.444 387.211 121.196 388.996 120.893 388.996C120.591 388.996 120.343 387.211 120.343 385C120.343 382.789 120.652 383.833 120.948 383.833C121.244 383.833 121.444 382.789 121.444 385Z" fill="#FFD037"/>
<path d="M124.491 387.636C122.562 388.693 120.863 389.331 120.73 389.063C120.597 388.796 122.036 387.721 123.965 386.634C125.894 385.546 125.132 386.348 125.277 386.634C125.422 386.919 126.42 386.579 124.491 387.636Z" fill="#FFD037"/>
<path d="M87.3302 377C87.3302 377 82.5475 383.275 89.531 392.75C96.5146 402.226 102.271 410.226 99.9429 416.136C99.9429 416.136 89.4101 398.521 80.8364 398.29C72.2627 398.059 77.8979 387.581 87.3302 377Z" fill="#F50057"/>
<path opacity="0.1" d="M87.3302 377C86.9101 377.607 86.5802 378.272 86.3507 378.974C77.9825 388.851 73.5264 398.065 81.568 398.296C89.0594 398.515 98.0504 411.969 100.203 415.371C100.131 415.632 100.044 415.89 99.9429 416.142C99.9429 416.142 89.4101 398.527 80.8364 398.296C72.2627 398.065 77.8979 387.581 87.3302 377Z" fill="black"/>
<path d="M78.4481 385C78.4481 387.211 78.6899 388.996 78.9983 388.996C79.3066 388.996 79.5485 387.211 79.5485 385C79.5485 382.789 79.2401 383.833 78.9439 383.833C78.6476 383.833 78.4481 382.789 78.4481 385Z" fill="#FFD037"/>
<path d="M75.4007 387.636C77.3295 388.693 79.0286 389.331 79.1555 389.063C79.2825 388.796 77.8556 387.721 75.9268 386.634C73.998 385.546 74.7598 386.348 74.6087 386.634C74.4575 386.919 73.4659 386.579 75.4007 387.636Z" fill="#FFD037"/>
<path opacity="0.1" d="M99.9489 464.152C127.535 464.152 149.898 460.704 149.898 456.45C149.898 452.196 127.535 448.748 99.9489 448.748C72.3629 448.748 50 452.196 50 456.45C50 460.704 72.3629 464.152 99.9489 464.152Z" fill="#F50057"/>
<path d="M125.658 407.675L125.416 409.636L125.078 412.406L124.938 413.56L124.606 416.33L124.461 417.484L124.128 420.248L120.301 451.731C119.962 454.537 115.391 456.73 109.877 456.73H90.0147C84.4944 456.73 79.9355 454.537 79.5908 451.731L75.7635 420.278L75.431 417.515L75.2919 416.361L74.9472 413.591L74.8082 412.437L74.4756 409.667L74.2338 407.705C74.0463 406.113 76.5132 404.777 79.6392 404.777H120.259C123.372 404.747 125.851 406.083 125.658 407.675Z" fill="#65617D"/>
<path d="M125.416 409.637L125.084 412.406H74.8142L74.4756 409.637H125.416Z" fill="#9D9CB5"/>
<path d="M124.945 413.56L124.606 416.33H75.2919L74.9533 413.56H124.945Z" fill="#9D9CB5"/>
<path d="M124.461 417.484L124.128 420.248H75.7635L75.431 417.484H124.461Z" fill="#9D9CB5"/>
<path d="M574.664 359C574.664 359 578.074 363.477 573.092 370.243C568.11 377.01 564.023 382.72 565.655 386.941C565.655 386.941 573.177 374.374 579.302 374.185C585.427 373.997 581.4 366.556 574.664 359Z" fill="#F50057"/>
<path opacity="0.1" d="M574.664 359C574.964 359.43 575.199 359.903 575.36 360.403C581.333 367.455 584.52 374.034 578.776 374.198C573.425 374.349 567.01 383.959 565.474 386.388C565.528 386.571 565.589 386.759 565.655 386.941C565.655 386.941 573.177 374.374 579.302 374.185C585.427 373.997 581.4 366.556 574.664 359Z" fill="black"/>
<path d="M581.007 364.71C581.007 366.289 580.832 367.565 580.614 367.565C580.396 367.565 580.221 366.289 580.221 364.71C580.221 363.131 580.439 363.878 580.656 363.878C580.874 363.878 581.007 363.131 581.007 364.71Z" fill="#FFD037"/>
<path d="M583.184 366.593C581.805 367.346 580.602 367.808 580.499 367.613C580.396 367.419 581.424 366.654 582.803 365.9C584.181 365.147 583.643 365.694 583.746 365.9C583.849 366.107 584.562 365.858 583.184 366.593Z" fill="#FFD037"/>
<path d="M556.646 359C556.646 359 553.236 363.477 558.224 370.243C563.212 377.01 567.294 382.72 565.655 386.941C565.655 386.941 558.134 374.374 552.015 374.185C545.896 373.997 549.917 366.556 556.646 359Z" fill="#F50057"/>
<path opacity="0.1" d="M723.646 398C723.349 398.432 723.115 398.905 722.951 399.403C716.977 406.455 713.797 413.034 719.541 413.198C724.886 413.349 731.301 422.959 732.843 425.388C732.793 425.576 732.733 425.761 732.661 425.941C732.661 425.941 725.14 413.374 719.021 413.185C712.902 412.997 716.917 405.556 723.646 398Z" fill="black"/>
<path d="M717.285 403.71C717.285 405.289 717.461 406.565 717.678 406.565C717.896 406.565 718.071 405.289 718.071 403.71C718.071 402.131 717.854 402.878 717.636 402.878C717.418 402.878 717.285 402.131 717.285 403.71Z" fill="#FFD037"/>
<path d="M715.133 405.593C716.512 406.346 717.715 406.808 717.818 406.613C717.92 406.419 716.886 405.654 715.508 404.9C714.129 404.147 714.673 404.694 714.571 404.9C714.468 405.107 713.754 404.858 715.133 405.593Z" fill="#FFD037"/>
<path opacity="0.1" d="M565.661 421.218C585.357 421.218 601.323 418.757 601.323 415.721C601.323 412.685 585.357 410.224 565.661 410.224C545.966 410.224 530 412.685 530 415.721C530 418.757 545.966 421.218 565.661 421.218Z" fill="#F50057"/>
<path d="M584.012 380.897L583.843 382.301L583.601 384.275L583.504 385.101L583.262 387.075L583.159 387.901L582.924 389.875L580.191 412.349C579.949 414.36 576.684 415.921 572.748 415.921H558.569C554.627 415.921 551.368 414.36 551.126 412.349L548.393 389.875L548.151 387.901L548.054 387.075L547.812 385.101L547.71 384.275L547.474 382.301L547.299 380.897C547.166 379.762 548.931 378.808 551.156 378.808H580.179C582.386 378.808 584.145 379.762 584.012 380.897Z" fill="#65617D"/>
<path d="M583.843 382.301L583.607 384.275H547.716L547.474 382.301H583.843Z" fill="#9D9CB5"/>
<path d="M583.504 385.101L583.268 387.075H548.054L547.812 385.101H583.504Z" fill="#9D9CB5"/>
<path d="M583.159 387.901L582.924 389.875H548.393L548.157 387.901H583.159Z" fill="#9D9CB5"/>
<path opacity="0.1" d="M402 440C581.493 440 727 431.493 727 421C727 410.507 581.493 402 402 402C222.507 402 77 410.507 77 421C77 431.493 222.507 440 402 440Z" fill="#F50057"/>
<path opacity="0.1" d="M437.759 62.3839C394.424 61.1205 353.146 49.4217 313.736 36.6173C274.326 23.813 235.278 9.64191 192.978 2.85706C165.77 -1.5042 134.661 -2.12377 112.737 10.0792C91.6474 21.8145 84.8271 42.0841 81.163 60.8836C78.4059 75.0304 76.7854 89.9242 84.3373 103.166C89.5856 112.362 98.8969 120.089 105.336 128.896C127.75 159.546 111.909 197.334 87.6205 227.255C76.2292 241.293 63.0179 254.686 54.2265 269.629C45.4351 284.571 41.378 301.706 49.0629 316.934C56.6874 332.041 74.8506 343.387 94.5315 351.369C134.498 367.581 181.599 372.221 227.551 374.845C329.184 380.671 431.368 378.144 533.327 375.623C571.05 374.694 608.906 373.746 646.049 368.868C666.655 366.159 687.932 361.859 702.885 351.478C721.883 338.297 726.587 315.987 713.859 299.459C692.515 271.742 633.491 264.836 618.569 235.115C610.358 218.745 618.792 200.492 630.728 185.307C656.328 152.737 699.245 124.158 701.506 86.9054C703.06 61.3331 682.43 35.7244 650.53 23.6247C617.093 10.9418 570.718 12.5393 546.055 33.5316C520.66 55.18 476.026 63.4955 437.759 62.3839Z" fill="#F50057"/>
<path d="M373.684 93C312.168 93 268 134.631 268 231.769C268 341.859 312.168 371 373.684 371C435.201 371 482 339.083 482 231.769C482 117.053 435.201 93 373.684 93ZM374.089 334.458C331.481 334.458 309.221 308.091 309.221 231.84C309.221 164.56 332.392 129.08 375 129.08C417.608 129.08 440.779 152.385 440.779 231.84C440.779 306.168 416.696 334.458 374.089 334.458Z" fill="#2F2E41"/>
<path d="M232.585 294.904H207.04V216.06C207.04 211.872 205.453 207.856 202.628 204.895C199.803 201.934 195.971 200.27 191.976 200.27H185.99C184.012 200.27 182.053 200.678 180.225 201.472C178.397 202.265 176.737 203.429 175.338 204.895C173.939 206.361 172.829 208.102 172.072 210.017C171.315 211.933 170.926 213.986 170.926 216.06V294.904H98.8727C97.3904 294.904 95.9333 294.502 94.6427 293.738C93.3521 292.974 92.2718 291.873 91.5068 290.542C90.7417 289.212 90.3177 287.696 90.276 286.143C90.2343 284.59 90.5762 283.052 91.2687 281.679L167.529 130.394C168.479 128.508 169.056 126.44 169.223 124.314C169.39 122.188 169.144 120.048 168.5 118.025C167.857 116.001 166.828 114.135 165.478 112.539C164.127 110.943 162.482 109.651 160.642 108.74L156.14 106.512C152.644 104.782 148.648 104.526 144.977 105.798C141.307 107.07 138.244 109.773 136.421 113.346L43.4124 295.713C41.8286 298.818 41 302.285 41 305.807V305.807C41 308.618 41.5284 311.403 42.5549 314C43.5815 316.598 45.0862 318.958 46.9831 320.946C48.8799 322.935 51.1318 324.512 53.6102 325.588C56.0886 326.664 58.7449 327.218 61.4274 327.218H170.926V377.073C170.926 379.559 171.393 382.02 172.3 384.316C173.208 386.613 174.538 388.699 176.214 390.456C177.891 392.214 179.882 393.608 182.073 394.559C184.264 395.51 186.612 396 188.983 396H188.983C191.354 396 193.702 395.51 195.893 394.559C198.084 393.608 200.075 392.214 201.752 390.456C203.428 388.699 204.758 386.613 205.666 384.316C206.573 382.02 207.04 379.559 207.04 377.073V327.218H232.585C236.673 327.218 240.594 325.515 243.485 322.485C246.376 319.455 248 315.346 248 311.061V311.061C248 306.775 246.376 302.666 243.485 299.636C240.594 296.606 236.673 294.904 232.585 294.904V294.904Z" fill="#F50057"/>
<path d="M701.66 294.904H676.238V216.06C676.238 211.872 674.659 207.856 671.847 204.895C669.036 201.934 665.223 200.27 661.246 200.27H655.29C653.321 200.27 651.372 200.678 649.553 201.472C647.734 202.265 646.081 203.429 644.689 204.895C643.297 206.361 642.193 208.102 641.439 210.017C640.686 211.933 640.298 213.986 640.298 216.06V294.904H568.593C567.118 294.904 565.668 294.502 564.384 293.738C563.099 292.974 562.024 291.873 561.263 290.542C560.501 289.212 560.079 287.696 560.038 286.143C559.996 284.59 560.337 283.052 561.026 281.679L636.917 130.394C637.864 128.508 638.437 126.44 638.603 124.314C638.769 122.188 638.525 120.048 637.884 118.025C637.244 116.001 636.221 114.135 634.876 112.539C633.532 110.943 631.895 109.651 630.064 108.74L625.584 106.512C622.105 104.782 618.128 104.526 614.475 105.798C610.823 107.07 607.774 109.773 605.961 113.346L513.401 295.713C511.825 298.818 511 302.285 511 305.807V305.807C511 311.485 513.142 316.931 516.954 320.946C520.767 324.962 525.937 327.218 531.329 327.218H640.298V377.073C640.298 382.093 642.191 386.907 645.561 390.456C648.931 394.006 653.502 396 658.268 396V396C663.034 396 667.605 394.006 670.975 390.456C674.345 386.907 676.238 382.093 676.238 377.073V327.218H701.66C705.728 327.218 709.63 325.515 712.507 322.485C715.384 319.455 717 315.346 717 311.061V311.061C717 306.775 715.384 302.666 712.507 299.636C709.63 296.606 705.728 294.904 701.66 294.904Z" fill="#F50057"/>
<path d="M237.734 286.251H212.436V207.678C212.436 205.612 212.05 203.566 211.301 201.656C210.551 199.747 209.452 198.013 208.067 196.551C206.681 195.09 205.036 193.931 203.226 193.14C201.416 192.35 199.476 191.943 197.517 191.943H191.589C187.633 191.943 183.838 193.6 181.04 196.551C178.242 199.502 176.67 203.505 176.67 207.678V286.251H105.314C103.846 286.251 102.403 285.851 101.124 285.089C99.8463 284.328 98.7765 283.231 98.0188 281.905C97.2611 280.579 96.8412 279.068 96.7999 277.521C96.7586 275.973 97.0972 274.44 97.783 273.071L173.306 122.307C174.248 120.427 174.818 118.366 174.984 116.247C175.149 114.129 174.906 111.997 174.268 109.98C173.631 107.963 172.613 106.103 171.275 104.513C169.937 102.923 168.308 101.635 166.486 100.727L162.027 98.5067C158.565 96.7825 154.608 96.5279 150.973 97.7956C147.338 99.0633 144.304 101.756 142.5 105.317L50.3891 287.058C48.8206 290.152 48 293.607 48 297.117V297.117C48 302.776 50.1314 308.203 53.9252 312.204C57.7191 316.206 62.8647 318.454 68.2301 318.454H176.67V368.138C176.67 370.615 177.133 373.068 178.031 375.356C178.93 377.645 180.247 379.724 181.908 381.476C183.569 383.227 185.54 384.616 187.71 385.564C189.879 386.512 192.205 387 194.553 387H194.553C199.296 387 203.845 385.013 207.198 381.476C210.552 377.938 212.436 373.141 212.436 368.138V318.454H237.734C239.739 318.454 241.724 318.037 243.576 317.228C245.428 316.419 247.111 315.233 248.529 313.738C249.946 312.243 251.071 310.468 251.838 308.514C252.605 306.561 253 304.467 253 302.352V302.352C253 300.238 252.605 298.144 251.838 296.191C251.071 294.237 249.946 292.462 248.529 290.967C247.111 289.472 245.428 288.286 243.576 287.477C241.724 286.667 239.739 286.251 237.734 286.251V286.251Z" stroke="#3F3D56" stroke-miterlimit="10"/>
<path d="M714.585 286.251H689.041V207.678C689.041 203.505 687.453 199.502 684.628 196.551C681.803 193.6 677.971 191.943 673.976 191.943H667.99C666.012 191.943 664.053 192.35 662.225 193.14C660.398 193.931 658.737 195.09 657.338 196.551C655.939 198.013 654.829 199.747 654.072 201.656C653.315 203.566 652.926 205.612 652.926 207.678V286.251H580.873C579.39 286.251 577.933 285.851 576.643 285.089C575.352 284.328 574.272 283.231 573.507 281.905C572.742 280.579 572.318 279.068 572.276 277.521C572.234 275.973 572.576 274.44 573.269 273.071L649.529 122.307C650.479 120.427 651.056 118.366 651.223 116.247C651.39 114.129 651.144 111.997 650.5 109.98C649.857 107.963 648.829 106.103 647.478 104.513C646.127 102.923 644.482 101.635 642.642 100.727L638.14 98.5067C634.644 96.7825 630.648 96.5279 626.978 97.7956C623.307 99.0633 620.244 101.756 618.422 105.317L525.412 287.058C523.829 290.152 523 293.607 523 297.117C523 302.776 525.152 308.203 528.983 312.204C532.814 316.206 538.01 318.454 543.427 318.454H652.926V368.138C652.926 373.141 654.828 377.938 658.214 381.476C661.601 385.013 666.194 387 670.983 387V387C675.772 387 680.365 385.013 683.752 381.476C687.138 377.938 689.04 373.141 689.04 368.138V318.454H714.585C716.609 318.454 718.614 318.037 720.484 317.228C722.354 316.419 724.054 315.233 725.485 313.738C726.916 312.243 728.052 310.468 728.827 308.514C729.601 306.561 730 304.467 730 302.352V302.352C730 298.082 728.376 293.987 725.485 290.967C722.594 287.947 718.673 286.251 714.585 286.251V286.251Z" stroke="#3F3D56" stroke-miterlimit="10"/>
<path d="M387.684 86C326.168 86 282 127.631 282 224.769C282 334.859 326.168 364 387.684 364C449.201 364 496 332.083 496 224.769C496 110.053 449.201 86 387.684 86ZM388.089 327.458C345.481 327.458 323.221 301.091 323.221 224.84C323.221 157.56 346.392 122.08 389 122.08C431.608 122.08 454.779 145.385 454.779 224.84C454.779 299.168 430.696 327.458 388.089 327.458V327.458Z" stroke="#3F3D56" stroke-miterlimit="10"/>
<path d="M721.208 285.037C723.463 285.884 725.879 286.178 728.263 285.896C730.648 285.615 732.936 284.765 734.949 283.415C736.961 282.064 738.642 280.25 739.859 278.114C741.076 275.979 741.797 273.58 741.963 271.108C742.129 268.636 741.737 266.158 740.817 263.869C739.898 261.581 738.476 259.544 736.664 257.919C734.851 256.294 732.698 255.126 730.374 254.507C728.05 253.888 725.619 253.835 723.272 254.352L723.659 262.587L719.886 255.529C716.182 257.326 713.32 260.567 711.93 264.541C711.437 265.933 711.136 267.39 711.039 268.869C710.801 272.339 711.664 275.795 713.499 278.712C715.334 281.63 718.041 283.85 721.208 285.037V285.037Z" fill="#57B894"/>
<path d="M739.718 378C738.478 371.211 743.852 365.193 749.16 361.281C754.469 357.369 760.671 353.525 762.482 346.886C765.085 337.345 757.332 328.607 751.297 321.072C746.819 315.48 742.974 309.337 739.842 302.772C738.587 300.14 737.433 297.388 737.103 294.451C736.627 290.222 737.891 286.013 739.164 281.979C743.406 268.54 747.942 255.214 752.771 242" stroke="#3F3D56" stroke-miterlimit="10"/>
<path d="M722.549 281.097C724.659 281.891 726.919 282.167 729.149 281.903C731.38 281.639 733.521 280.843 735.404 279.577C737.286 278.31 738.859 276.609 739.997 274.607C741.136 272.605 741.81 270.357 741.965 268.039C742.121 265.722 741.754 263.398 740.894 261.253C740.033 259.107 738.703 257.197 737.008 255.674C735.312 254.151 733.298 253.056 731.124 252.476C728.95 251.895 726.676 251.845 724.48 252.33L724.843 260.05L721.312 253.434C717.847 255.118 715.171 258.157 713.87 261.882C713.408 263.187 713.128 264.553 713.036 265.94C712.813 269.193 713.622 272.433 715.338 275.168C717.055 277.903 719.586 279.985 722.549 281.097V281.097Z" stroke="#3F3D56" stroke-miterlimit="10"/>
<path d="M737.93 238.212C738.815 235.769 740.301 233.587 742.251 231.869C744.201 230.151 746.552 228.952 749.087 228.381L750.364 235.967L752.73 228C756.015 228.049 759.201 229.14 761.825 231.117C764.45 233.094 766.378 235.854 767.332 238.999C768.286 242.144 768.216 245.51 767.133 248.612C766.049 251.714 764.007 254.392 761.302 256.258C758.598 258.124 755.37 259.082 752.085 258.994C748.8 258.907 745.629 257.777 743.028 255.769C740.427 253.761 738.531 250.978 737.615 247.822C736.699 244.666 736.809 241.301 737.93 238.212H737.93Z" fill="#57B894"/>
<path d="M739.87 234.541C740.698 232.019 742.088 229.768 743.912 227.994C745.736 226.221 747.936 224.983 750.307 224.394L751.501 232.224L753.715 224C756.789 224.05 759.768 225.177 762.224 227.218C764.679 229.259 766.483 232.108 767.375 235.354C768.268 238.6 768.202 242.075 767.189 245.277C766.175 248.479 764.265 251.243 761.734 253.169C759.204 255.096 756.185 256.085 753.112 255.994C750.039 255.903 747.072 254.737 744.639 252.664C742.206 250.592 740.433 247.719 739.575 244.461C738.718 241.204 738.821 237.73 739.87 234.541H739.87Z" stroke="#3F3D56" stroke-miterlimit="10"/>
<path d="M748.561 320.101C751.908 321.357 755.584 321.295 758.889 319.927C762.194 318.559 764.897 315.98 766.483 312.683C768.068 309.385 768.426 305.599 767.487 302.047C766.548 298.494 764.378 295.423 761.391 293.419L759.691 299.343L758.485 291.917C758.473 291.911 758.461 291.906 758.448 291.902C756.658 291.229 754.758 290.928 752.855 291.015C750.953 291.102 749.085 291.576 747.36 292.41C745.635 293.244 744.085 294.422 742.8 295.876C741.514 297.33 740.518 299.032 739.869 300.884C739.22 302.736 738.929 304.703 739.015 306.671C739.1 308.639 739.559 310.571 740.367 312.356C741.174 314.14 742.313 315.743 743.719 317.072C745.125 318.401 746.77 319.43 748.561 320.101H748.561Z" fill="#57B894"/>
<path d="M749.221 317.041C752.798 318.381 756.728 318.315 760.261 316.855C763.794 315.396 766.683 312.646 768.378 309.128C770.073 305.611 770.455 301.572 769.451 297.783C768.448 293.993 766.128 290.718 762.936 288.58L761.118 294.899L759.829 286.978C759.816 286.971 759.803 286.966 759.79 286.962C757.876 286.244 755.845 285.923 753.811 286.016C751.777 286.109 749.781 286.614 747.936 287.504C746.092 288.394 744.436 289.65 743.062 291.201C741.688 292.752 740.623 294.567 739.929 296.543C739.235 298.519 738.924 300.616 739.016 302.716C739.107 304.815 739.598 306.876 740.461 308.78C741.324 310.683 742.541 312.393 744.044 313.81C745.548 315.228 747.306 316.326 749.221 317.041H749.221Z" stroke="#3F3D56" stroke-miterlimit="10"/>
<path d="M734.223 346.769C734.799 350.385 736.483 353.672 738.994 356.079C741.505 358.486 744.69 359.867 748.014 359.991C751.338 360.114 754.6 358.973 757.252 356.757C759.904 354.542 761.785 351.388 762.58 347.823C763.375 344.259 763.035 340.501 761.617 337.181C760.2 333.86 757.791 331.178 754.794 329.585C751.798 327.992 748.396 327.585 745.159 328.431C741.923 329.277 739.048 331.326 737.018 334.234L743.481 344.969L734.65 339.271C733.966 341.697 733.819 344.268 734.223 346.769V346.769Z" fill="#57B894"/>
<path d="M734.223 344.596C734.799 347.986 736.483 351.067 738.994 353.324C741.505 355.581 744.69 356.876 748.014 356.991C751.338 357.107 754.6 356.037 757.252 353.96C759.904 351.883 761.785 348.926 762.58 345.584C763.375 342.243 763.035 338.72 761.617 335.607C760.2 332.494 757.791 329.98 754.794 328.486C751.797 326.993 748.396 326.611 745.159 327.404C741.923 328.198 739.048 330.118 737.018 332.844L743.481 342.908L734.65 337.567C733.966 339.841 733.819 342.251 734.223 344.596V344.596Z" stroke="#3F3D56" stroke-miterlimit="10"/>
<path d="M7.91483 322.368C9.44286 322.924 11.079 323.117 12.6944 322.932C14.3097 322.747 15.8601 322.19 17.2233 321.304C18.5865 320.417 19.7252 319.227 20.5498 317.825C21.3743 316.424 21.8622 314.85 21.9748 313.227C22.0874 311.605 21.8218 309.979 21.1988 308.477C20.5758 306.975 19.6126 305.638 18.3849 304.572C17.1573 303.506 15.6988 302.739 14.1245 302.333C12.5502 301.927 10.903 301.892 9.31289 302.231L9.57566 307.635L7.01918 303.004C4.51015 304.183 2.57181 306.31 1.63013 308.918C1.2957 309.831 1.09239 310.787 1.02627 311.758C0.864906 314.035 1.45009 316.303 2.69313 318.217C3.93618 320.132 5.76934 321.589 7.91483 322.368V322.368Z" fill="#57B894"/>
<path d="M19.7771 385C18.9662 380.408 22.48 376.336 25.9509 373.69C29.4217 371.043 33.4772 368.443 34.6615 363.952C36.3635 357.498 31.2937 351.587 27.3479 346.49C24.4204 342.707 21.9064 338.551 19.8584 334.11C18.9681 332.366 18.3616 330.46 18.0671 328.482C17.7559 325.621 18.5824 322.774 19.415 320.045C22.1887 310.954 25.1543 301.939 28.3117 293" stroke="#3F3D56" stroke-miterlimit="10"/>
<path d="M7.91485 320.428C9.44288 320.931 11.0791 321.106 12.6944 320.938C14.3098 320.771 15.8601 320.267 17.2233 319.465C18.5865 318.663 19.7252 317.586 20.5498 316.318C21.3743 315.05 21.8622 313.626 21.9748 312.158C22.0874 310.69 21.8218 309.219 21.1988 307.86C20.5758 306.501 19.6126 305.292 18.3849 304.327C17.1573 303.362 15.6988 302.669 14.1245 302.301C12.5502 301.934 10.9031 301.902 9.31291 302.209L9.57568 307.098L7.0192 302.908C4.51015 303.975 2.57181 305.899 1.63013 308.259C1.29571 309.085 1.0924 309.95 1.02628 310.829C0.864899 312.889 1.45007 314.941 2.69312 316.673C3.93617 318.405 5.76934 319.724 7.91485 320.428V320.428Z" stroke="#3F3D56" stroke-miterlimit="10"/>
<path d="M18.5697 292.918C19.1124 291.263 20.0233 289.785 21.2184 288.621C22.4135 287.457 23.8544 286.645 25.4082 286.258L26.1905 291.397L27.6409 286C29.6546 286.033 31.6067 286.773 33.2154 288.112C34.8241 289.451 36.0062 291.321 36.5908 293.451C37.1755 295.581 37.1326 297.862 36.4683 299.963C35.804 302.065 34.5527 303.878 32.895 305.143C31.2373 306.407 29.259 307.056 27.2458 306.996C25.2326 306.937 23.2885 306.171 21.6944 304.811C20.1003 303.451 18.9385 301.566 18.3769 299.428C17.8153 297.29 17.8828 295.01 18.5697 292.918V292.918Z" fill="#57B894"/>
<path d="M18.5697 289.247C19.1124 287.513 20.0233 285.965 21.2184 284.746C22.4135 283.527 23.8544 282.676 25.4082 282.271L26.1905 287.654L27.6409 282C29.6546 282.035 31.6067 282.809 33.2154 284.212C34.8241 285.615 36.0062 287.574 36.5908 289.806C37.1755 292.037 37.1326 294.426 36.4683 296.628C35.804 298.83 34.5527 300.73 32.895 302.054C31.2373 303.378 29.259 304.058 27.2458 303.996C25.2326 303.934 23.2885 303.132 21.6944 301.707C20.1003 300.282 18.9385 298.307 18.3769 296.067C17.8153 293.828 17.8828 291.439 18.5697 289.247V289.247Z" stroke="#3F3D56" stroke-miterlimit="10"/>
<path d="M24.9248 345.431C27.3479 346.226 30.0097 346.187 32.4028 345.32C34.796 344.454 36.7531 342.821 37.9012 340.733C39.0494 338.644 39.3082 336.246 38.6283 333.997C37.9485 331.747 36.3775 329.802 34.2149 328.532L32.9836 332.284L32.1105 327.581C32.1019 327.577 32.0929 327.574 32.0838 327.572C30.7877 327.145 29.4114 326.954 28.0337 327.009C26.6559 327.064 25.3036 327.365 24.0541 327.893C22.8046 328.421 21.6823 329.167 20.7515 330.088C19.8207 331.009 19.0995 332.086 18.6292 333.26C18.1589 334.433 17.9487 335.678 18.0106 336.925C18.0725 338.172 18.4053 339.395 18.9899 340.526C19.5746 341.656 20.3997 342.671 21.418 343.513C22.4363 344.354 23.628 345.006 24.9248 345.431V345.431Z" fill="#57B894"/>
<path d="M26.2606 345.371C28.4537 346.25 30.8629 346.207 33.0289 345.249C35.195 344.291 36.9664 342.486 38.0055 340.177C39.0447 337.869 39.2789 335.218 38.6636 332.731C38.0483 330.244 36.6264 328.094 34.669 326.691L33.5546 330.838L32.7644 325.64C32.7566 325.635 32.7485 325.632 32.7402 325.629C31.5674 325.159 30.3222 324.949 29.0759 325.01C27.8295 325.072 26.6063 325.404 25.4762 325.989C23.1937 327.168 21.4287 329.302 20.5695 331.919C19.7102 334.537 19.8271 337.425 20.8944 339.948C21.9617 342.47 23.892 344.421 26.2606 345.371V345.371Z" stroke="#3F3D56" stroke-miterlimit="10"/>
<path d="M15.1537 362.731C15.5507 364.99 16.7125 367.045 18.4443 368.549C20.176 370.054 22.3723 370.917 24.6649 370.994C26.9574 371.072 29.2068 370.358 31.0358 368.973C32.8648 367.589 34.1622 365.617 34.7103 363.39C35.2585 361.162 35.0241 358.813 34.0464 356.738C33.0687 354.663 31.4073 352.987 29.3407 351.991C27.2741 350.995 24.9281 350.74 22.696 351.269C20.4639 351.798 18.4816 353.079 17.0814 354.896L21.5386 361.606L15.4485 358.044C14.9763 359.56 14.8752 361.168 15.1537 362.731V362.731Z" fill="#57B894"/>
<path d="M15.1537 362.317C15.5507 364.69 16.7125 366.847 18.4443 368.427C20.176 370.007 22.3723 370.913 24.6649 370.994C26.9574 371.075 29.2069 370.326 31.0359 368.872C32.8648 367.418 34.1622 365.348 34.7103 363.009C35.2585 360.67 35.0241 358.204 34.0464 356.025C33.0687 353.846 31.4073 352.086 29.3407 351.04C27.2741 349.995 24.9281 349.728 22.696 350.283C20.4639 350.838 18.4816 352.183 17.0814 354.091L21.5386 361.136L15.4485 357.397C14.9763 358.988 14.8752 360.676 15.1537 362.317V362.317Z" stroke="#3F3D56" stroke-miterlimit="10"/>
<path d="M345 226C352.18 226 358 218.389 358 209C358 199.611 352.18 192 345 192C337.82 192 332 199.611 332 209C332 218.389 337.82 226 345 226Z" fill="#2F2E41"/>
<path d="M411 226C417.627 226 423 218.389 423 209C423 199.611 417.627 192 411 192C404.373 192 399 199.611 399 209C399 218.389 404.373 226 411 226Z" fill="#2F2E41"/>
<path d="M403 258.5C403 265.955 392.926 272 380.5 272C368.074 272 358 265.955 358 258.5C358 252.043 365.556 246.643 375.652 245.323C377.259 245.104 378.879 244.996 380.5 245C383.217 244.991 385.926 245.293 388.578 245.9C397.012 247.843 403 252.755 403 258.5Z" fill="#2F2E41"/>
<path d="M347.5 222C354.404 222 360 214.613 360 205.5C360 196.387 354.404 189 347.5 189C340.596 189 335 196.387 335 205.5C335 214.613 340.596 222 347.5 222Z" stroke="#3F3D56" stroke-miterlimit="10"/>
<path d="M415 222C421.627 222 427 214.613 427 205.5C427 196.387 421.627 189 415 189C408.373 189 403 196.387 403 205.5C403 214.613 408.373 222 415 222Z" stroke="#3F3D56" stroke-miterlimit="10"/>
<path d="M383 266C395.703 266 406 260.627 406 254C406 247.373 395.703 242 383 242C370.297 242 360 247.373 360 254C360 260.627 370.297 266 383 266Z" stroke="#3F3D56" stroke-miterlimit="10"/>
<path d="M387 246.2C387.006 247.458 386.658 248.671 386.027 249.592C385.73 250.033 385.368 250.386 384.964 250.629C384.561 250.871 384.125 250.997 383.685 251H376.317C375.409 250.957 374.551 250.428 373.929 249.529C373.308 248.629 372.975 247.433 373.002 246.2C372.998 245.225 373.208 244.271 373.606 243.459C375.236 243.147 376.881 242.994 378.527 243C381.288 242.988 384.041 243.418 386.727 244.28C386.909 244.89 387.002 245.542 387 246.2V246.2Z" fill="white"/>
<path d="M348.5 205C349.881 205 351 203.209 351 201C351 198.791 349.881 197 348.5 197C347.119 197 346 198.791 346 201C346 203.209 347.119 205 348.5 205Z" fill="white"/>
<path d="M414.5 205C416.433 205 418 203.209 418 201C418 198.791 416.433 197 414.5 197C412.567 197 411 198.791 411 201C411 203.209 412.567 205 414.5 205Z" fill="white"/>
<path opacity="0.3" d="M418.5 240C420.433 240 422 238.433 422 236.5C422 234.567 420.433 233 418.5 233C416.567 233 415 234.567 415 236.5C415 238.433 416.567 240 418.5 240Z" fill="#F50057"/>
<path opacity="0.3" d="M331 240C333.209 240 335 238.433 335 236.5C335 234.567 333.209 233 331 233C328.791 233 327 234.567 327 236.5C327 238.433 328.791 240 331 240Z" fill="#F50057"/>
</svg>
